<svg width="40" height="40" viewBox="0 0 40 40" fill="none" xmlns="http://www.w3.org/2000/svg">
<path fill-rule="evenodd" clip-rule="evenodd" d="M22.3148 13.2592C22.3148 17.2684 19.0647 20.5185 15.0555 20.5185C11.0463 20.5185 7.79626 17.2684 7.79626 13.2592C7.79626 9.25008 11.0463 6 15.0555 6C19.0647 6 22.3148 9.25008 22.3148 13.2592ZM16.9908 23.4493C16.3638 23.5677 15.7169 23.6296 15.0555 23.6296C12.7206 23.6296 10.566 22.858 8.83265 21.5558L0.5 24.6666V34H18.5436C17.25 31.9794 16.5 29.5773 16.5 27C16.5 25.769 16.6711 24.5779 16.9908 23.4493ZM39.5 27C39.5 32.5228 35.0228 37 29.5 37C23.9772 37 19.5 32.5228 19.5 27C19.5 21.4772 23.9772 17 29.5 17C35.0228 17 39.5 21.4772 39.5 27ZM34.9009 23.9178L28.0417 31.6344L24.1154 28.6897L25.5 26.8435L27.7276 28.5142L33.1761 22.3846L34.9009 23.9178Z" fill="#1d1c1a"/>
</svg>
