<svg width="40" height="40" viewBox="0 0 40 40" fill="none" xmlns="http://www.w3.org/2000/svg">
<path fill-rule="evenodd" clip-rule="evenodd" d="M25.443 17.1881C24.3893 19.1277 22.3343 20.4444 19.9718 20.4444C16.5354 20.4444 13.7496 17.6586 13.7496 14.2222C13.7496 10.7858 16.5354 8 19.9718 8C23.288 8 25.9983 10.5943 26.1839 13.8641L26.1839 13.8641C26.1907 13.9826 26.1941 14.1019 26.1941 14.2221C26.1941 15.0007 26.051 15.7459 25.7898 16.4329C25.6908 16.6935 25.5747 16.9456 25.443 17.1881ZM28.6941 14.2221C28.6941 16.1261 28.084 17.8877 27.0486 19.3219L32.4748 21.389C33.3547 20.4992 33.898 19.2758 33.898 17.9255C33.898 15.205 31.6926 12.9996 28.9721 12.9996C28.8506 12.9996 28.7301 13.004 28.6109 13.0127C28.6657 13.408 28.6941 13.8117 28.6941 14.2221ZM25.4798 21.3996L29.268 22.8427L29.2681 22.8427L25.4798 21.3995L25.4798 21.3996ZM34.8052 31.9996H38.7359V25.6663L34.8052 24.1689V31.9996ZM32.3052 24.125L32.3051 24.125V31.9996H32.3052V24.125ZM11.2495 14.2221C11.2495 13.8118 11.2778 13.4081 11.3327 13.0129C11.2135 13.0043 11.0932 12.9999 10.9719 12.9999C8.25137 12.9999 6.04596 15.2053 6.04596 17.9258C6.04596 19.276 6.58918 20.4993 7.469 21.3891L12.8951 19.322C11.8596 17.8878 11.2495 16.1262 11.2495 14.2221ZM5.13837 24.1692L1.20801 25.6665V31.9998H5.13837V24.1692ZM14.6377 21.3335L7.63843 23.9998V31.9998H32.3051V23.9998L25.3058 21.3334C23.82 22.4497 21.9731 23.1111 19.9717 23.1111C17.9703 23.1111 16.1234 22.4497 14.6377 21.3335Z" fill="#1d1c1a"/>
</svg>
