<svg width="40" height="40" viewBox="0 0 40 40" fill="none" xmlns="http://www.w3.org/2000/svg">
<path fill-rule="evenodd" clip-rule="evenodd" d="M25.4722 20.4907C24.1291 20.4907 22.876 20.1053 21.8175 19.4391C23.0854 17.8407 23.8426 15.819 23.8426 13.6204C23.8426 11.4218 23.0854 9.39999 21.8175 7.80165C22.876 7.1354 24.1291 6.75 25.4722 6.75C29.2666 6.75 32.3426 9.82597 32.3426 13.6204C32.3426 17.4148 29.2666 20.4907 25.4722 20.4907ZM30.6944 22.6856V33.25H39.1944V24.4167L31.3618 21.4725C30.9023 21.8177 30.4115 22.1235 29.8944 22.3849L30.6944 22.6856ZM8.58269 21.4725L0.75 24.4167V33.25H28.1944V24.4167L20.3617 21.4725C18.7213 22.7049 16.682 23.4352 14.4722 23.4352C12.2624 23.4352 10.2232 22.7049 8.58269 21.4725ZM14.4722 20.4907C18.2666 20.4907 21.3426 17.4148 21.3426 13.6204C21.3426 9.82597 18.2666 6.75 14.4722 6.75C10.6778 6.75 7.60187 9.82597 7.60187 13.6204C7.60187 17.4148 10.6778 20.4907 14.4722 20.4907Z" fill="#1d1c1a"/>
</svg>
