<svg width="40" height="40" viewBox="0 0 40 40" fill="none" xmlns="http://www.w3.org/2000/svg">
<path fill-rule="evenodd" clip-rule="evenodd" d="M24.4009 12.2652C24.9063 11.3656 25.1945 10.3276 25.1945 9.22221L25.1944 9.18197C25.1937 9.07542 25.1904 8.96949 25.1844 8.86427C24.999 5.5944 22.2886 3 18.9723 3C15.5359 3 12.7501 5.78578 12.7501 9.22221C12.7501 12.6586 15.5359 15.4444 18.9723 15.4444C20.5719 15.4444 22.0305 14.8409 23.1328 13.849C23.2145 13.7755 23.2943 13.6997 23.3721 13.622C23.7737 13.2203 24.1207 12.7641 24.4009 12.2652ZM10.2501 9.22221C10.2501 8.81191 10.2785 8.40823 10.3333 8.01302C10.2141 8.00439 10.0937 8 9.97236 8C7.25185 8 5.04645 10.2054 5.04645 12.9259C5.04645 14.2761 5.58969 15.4995 6.46952 16.3893L11.8957 14.3221C10.8603 12.8879 10.2501 11.1263 10.2501 9.22221ZM4.13904 19.1692L0.208496 20.6666V26.9999H4.13904V19.1692ZM27.6946 9.22221C27.6946 11.1263 27.0844 12.8879 26.049 14.3221L31.4752 16.3892C32.355 15.4994 32.8982 14.2761 32.8982 12.9259C32.8982 10.2054 30.6928 8 27.9723 8C27.8509 8 27.7306 8.00439 27.6114 8.01302C27.6662 8.40823 27.6946 8.81191 27.6946 9.22221ZM13.6385 16.3335L6.63904 18.9999V26.9999H17.8625C19.0385 22.2263 22.957 18.532 27.8513 17.684L24.3063 16.3335C22.8206 17.4497 20.9738 18.1111 18.9724 18.1111C16.9711 18.1111 15.1242 17.4497 13.6385 16.3335ZM22.2633 23.6639C23.4047 22.2718 24.9145 21.1932 26.6437 20.5772C26.4307 20.9501 26.2051 21.375 25.9798 21.8482C25.5897 22.6674 25.1988 23.6348 24.8758 24.73C24.0292 24.4605 23.2718 24.1489 22.6162 23.8367C22.495 23.779 22.3773 23.7213 22.2633 23.6639ZM20.0002 30C20.0002 28.2411 20.4543 26.5882 21.2517 25.1522C21.441 25.2505 21.6401 25.3498 21.8484 25.449C22.5972 25.8055 23.4697 26.1627 24.4504 26.4681C24.238 27.5564 24.1073 28.7385 24.1073 29.9999C24.1073 31.2614 24.238 32.4436 24.4505 33.5319C23.4697 33.8373 22.5972 34.1945 21.8484 34.551C21.6401 34.6502 21.441 34.7495 21.2517 34.8478C20.4543 33.4118 20.0002 31.7589 20.0002 30ZM26.6438 39.4228C24.9145 38.8068 23.4047 37.7283 22.2633 36.3361C22.3773 36.2787 22.495 36.221 22.6162 36.1633C23.2718 35.8511 24.0292 35.5395 24.8758 35.27C25.1988 36.3652 25.5897 37.3325 25.9798 38.1517C26.2051 38.625 26.4308 39.0499 26.6438 39.4228ZM30.0002 40C29.7026 40 29.4081 39.987 29.1172 39.9616C29.0296 39.8444 28.9055 39.6724 28.7565 39.4489C28.4416 38.9766 28.0174 38.2772 27.592 37.3839C27.2424 36.6497 26.8935 35.7879 26.6038 34.8161C27.6449 34.5994 28.7825 34.4643 30.0002 34.4643C31.2178 34.4643 32.3554 34.5994 33.3966 34.8161C33.1068 35.7879 32.7579 36.6497 32.4083 37.3839C31.9829 38.2772 31.5587 38.9766 31.2439 39.4489C31.0949 39.6724 30.9707 39.8444 30.8831 39.9616C30.5922 39.987 30.2977 40 30.0002 40ZM37.7371 36.3361C36.5956 37.7283 35.0858 38.8068 33.3565 39.4228C33.5696 39.0499 33.7952 38.625 34.0206 38.1517C34.4107 37.3325 34.8015 36.3652 35.1245 35.27C35.9711 35.5395 36.7285 35.8511 37.3842 36.1633C37.5054 36.221 37.6231 36.2787 37.7371 36.3361ZM40.0002 30C40.0002 31.7589 39.5461 33.4118 38.7486 34.8478C38.5593 34.7495 38.3603 34.6503 38.1519 34.551C37.4032 34.1945 36.5306 33.8373 35.5499 33.5318C35.7623 32.4436 35.893 31.2614 35.893 29.9999C35.893 28.7385 35.7623 27.5564 35.5499 26.4681C36.5306 26.1627 37.4032 25.8055 38.1519 25.449C38.3603 25.3497 38.5593 25.2505 38.7486 25.1522C39.5461 26.5882 40.0002 28.2411 40.0002 30ZM33.3566 20.5772C35.0859 21.1932 36.5956 22.2717 37.7371 23.6639C37.6231 23.7213 37.5054 23.779 37.3842 23.8367C36.7285 24.1489 35.9711 24.4605 35.1245 24.73C34.8016 23.6348 34.4107 22.6674 34.0206 21.8482C33.7952 21.375 33.5696 20.9501 33.3566 20.5772ZM31.2439 20.551C31.0949 20.3276 30.9708 20.1556 30.8832 20.0385C30.5923 20.013 30.2977 20 30.0002 20C29.7026 20 29.4081 20.013 29.1171 20.0385C29.0295 20.1556 28.9054 20.3276 28.7565 20.551C28.4416 21.0233 28.0174 21.7227 27.592 22.616C27.2424 23.3502 26.8935 24.2121 26.6037 25.1839C27.6449 25.4006 28.7825 25.5357 30.0002 25.5357C31.2178 25.5357 32.3554 25.4006 33.3966 25.1839C33.1068 24.2121 32.758 23.3502 32.4083 22.616C31.9829 21.7227 31.5587 21.0233 31.2439 20.551ZM33.8183 33.0799C33.9979 32.126 34.1073 31.0954 34.1073 29.9999C34.1073 28.9046 33.9979 27.874 33.8183 26.9201C32.652 27.1666 31.3731 27.3214 30.0002 27.3214C28.6273 27.3214 27.3483 27.1666 26.1821 26.9201C26.0024 27.874 25.893 28.9046 25.893 29.9999C25.893 31.0954 26.0024 32.126 26.1821 33.0799C27.3483 32.8334 28.6273 32.6786 30.0002 32.6786C31.3731 32.6786 32.652 32.8334 33.8183 33.0799Z" fill="#1d1c1a"/>
</svg>
