<svg width="40" height="40" viewBox="0 0 40 40" fill="none" xmlns="http://www.w3.org/2000/svg">
<path fill-rule="evenodd" clip-rule="evenodd" d="M22.3148 13.2592C22.3148 17.2684 19.0647 20.5185 15.0555 20.5185C11.0463 20.5185 7.79626 17.2684 7.79626 13.2592C7.79626 9.25008 11.0463 6 15.0555 6C19.0647 6 22.3148 9.25008 22.3148 13.2592ZM16.9908 23.4493C16.3638 23.5677 15.7169 23.6296 15.0555 23.6296C12.7206 23.6296 10.566 22.858 8.83265 21.5558L0.5 24.6666V34H18.5436C17.25 31.9794 16.5 29.5773 16.5 27C16.5 25.769 16.6711 24.5779 16.9908 23.4493ZM39.5 27C39.5 32.5228 35.0228 37 29.5 37C23.9772 37 19.5 32.5228 19.5 27C19.5 21.4772 23.9772 17 29.5 17C35.0228 17 39.5 21.4772 39.5 27ZM27.9275 21H31.0281V23.2285C31.3759 23.3644 31.7016 23.5446 31.998 23.7622L33.9052 22.6611L35.4555 25.3463L33.6624 26.3816C33.7141 26.6468 33.7411 26.9209 33.7411 27.2012C33.7411 27.3577 33.7327 27.5123 33.7163 27.6644L35.4555 28.6686L33.9052 31.3538L32.2792 30.415C31.9121 30.7353 31.4897 30.9937 31.0281 31.1739V33.0149H27.9275V31.1739C27.4659 30.9937 27.0434 30.7353 26.6763 30.415L25.0503 31.3538L23.5 28.6686L25.2393 27.6644C25.2229 27.5123 25.2144 27.3577 25.2144 27.2012C25.2144 26.9209 25.2415 26.6468 25.2931 26.3816L23.5 25.3463L25.0503 22.6611L26.9575 23.7622C27.254 23.5446 27.5796 23.3644 27.9275 23.2285V21ZM29.4778 28.7515C30.334 28.7515 31.0281 28.0574 31.0281 27.2012C31.0281 26.345 30.334 25.6509 29.4778 25.6509C28.6216 25.6509 27.9275 26.345 27.9275 27.2012C27.9275 28.0574 28.6216 28.7515 29.4778 28.7515Z" fill="#1d1c1a"/>
</svg>
