<svg width="40" height="40" viewBox="0 0 40 40" fill="none" xmlns="http://www.w3.org/2000/svg">
<path fill-rule="evenodd" clip-rule="evenodd" d="M20 35C28.2843 35 35 28.2843 35 20C35 11.7157 28.2843 5 20 5C11.7157 5 5 11.7157 5 20C5 28.2843 11.7157 35 20 35ZM21.1973 22H18.7973L18.1973 17V13H21.7973V17L21.1973 22ZM21.8973 25.38C21.8973 26.42 21.0373 27.28 19.9973 27.28C18.9573 27.28 18.0973 26.42 18.0973 25.38C18.0973 24.34 18.9573 23.48 19.9973 23.48C21.0373 23.48 21.8973 24.34 21.8973 25.38Z" fill="#1d1c1a"/>
</svg>
