<svg width="40" height="40" viewBox="0 0 40 40" fill="none" xmlns="http://www.w3.org/2000/svg">
<path fill-rule="evenodd" clip-rule="evenodd" d="M28.5 4.5H4.5V8.9H28.5V4.5ZM6.49997 9.97619H26.5V13.539C26.1701 13.5129 25.8366 13.4996 25.5 13.4996C25.3325 13.4996 25.1658 13.5029 25 13.5094V13.4996H11V16.4996H17.3756C14.6973 18.7922 13 22.1977 13 25.9996C13 26.6722 13.0531 27.3324 13.1554 27.9762H6.49997V9.97619ZM35.5 26C35.5 31.5228 31.0228 36 25.5 36C19.9772 36 15.5 31.5228 15.5 26C15.5 20.4772 19.9772 16 25.5 16C31.0228 16 35.5 20.4772 35.5 26ZM22 28H24.3333V20H26.6667V28H29L25.5 32L22 28Z" fill="#1d1c1a"/>
</svg>
