<svg width="40" height="40" viewBox="0 0 40 40" fill="none" xmlns="http://www.w3.org/2000/svg">
<path fill-rule="evenodd" clip-rule="evenodd" d="M13.2755 6.48956C14.3552 5.32879 15.9056 4.75 17.75 4.75C19.5231 4.75 21.1528 5.19644 22.3503 6.27623C23.5691 7.37532 24.1579 8.96521 24.1579 10.8636V25.3182C24.1579 26.8902 23.5042 27.9653 22.5656 28.5874C21.7127 29.1527 20.7683 29.25 20.25 29.25C19.7263 29.25 18.8072 29.1509 17.9892 28.5569C17.098 27.9098 16.5395 26.8329 16.5395 25.3182V9.86364H19.0395V25.3182C19.0395 26.1671 19.3165 26.4311 19.4581 26.534C19.673 26.69 19.9842 26.75 20.25 26.75C20.5211 26.75 20.9057 26.6883 21.1844 26.5035C21.3774 26.3756 21.6579 26.1098 21.6579 25.3182V10.8636C21.6579 9.48934 21.2467 8.64741 20.6761 8.13286C20.084 7.59902 19.1348 7.25 17.75 7.25C16.4365 7.25 15.6119 7.64848 15.106 8.19226C14.5867 8.75061 14.25 9.62754 14.25 10.8636V26.2273C14.25 27.8342 14.8155 29.1935 15.796 30.1512C16.7751 31.1073 18.2582 31.75 20.25 31.75C22.2663 31.75 23.8222 31.1371 24.8597 30.1903C25.8882 29.2518 26.5 27.9033 26.5 26.2273V9.86364H29V26.2273C29 28.5513 28.1315 30.5891 26.5449 32.037C24.9673 33.4766 22.7732 34.25 20.25 34.25C17.7023 34.25 15.5604 33.4154 14.0493 31.9397C12.5398 30.4656 11.75 28.4385 11.75 26.2273V10.8636C11.75 9.19064 12.2094 7.63576 13.2755 6.48956Z" fill="#1d1c1a"/>
</svg>
