<svg width="40" height="40" viewBox="0 0 40 40" fill="none" xmlns="http://www.w3.org/2000/svg">
<path fill-rule="evenodd" clip-rule="evenodd" d="M6.81667 14.0881C7.11939 10.1527 9.86337 6.83248 13.6713 5.79395L14.3291 8.20585C11.5405 8.96639 9.531 11.3979 9.3093 14.2799L9.24654 15.0958L6.75391 14.904L6.81667 14.0881ZM18.0002 8C18.0002 6.89543 18.8956 6 20.0002 6C21.1048 6 22.0002 6.89543 22.0002 8V9.22302C26.0082 10.1325 29.0002 13.7168 29.0002 18V25L32.0002 30H8.00021L11.0002 25V18C11.0002 13.7168 13.9922 10.1325 18.0002 9.22302V8ZM20.0002 35.0001C21.6571 35.0001 23.0002 33.6569 23.0002 32.0001L20.0002 32L17.0002 32.0001C17.0002 33.6569 18.3434 35.0001 20.0002 35.0001ZM26.3291 5.79395C30.1371 6.83248 32.881 10.1527 33.1838 14.0881L33.2465 14.904L30.7539 15.0958L30.6911 14.2799C30.4694 11.3979 28.46 8.96639 25.6713 8.20585L26.3291 5.79395Z" fill="#1d1c1a"/>
</svg>
