<svg width="40" height="40" viewBox="0 0 40 40" fill="none" xmlns="http://www.w3.org/2000/svg">
<path fill-rule="evenodd" clip-rule="evenodd" d="M11.25 4H8.75V6.5H6.25V9H31.75V6.5H29.25V4H26.75V6.5H11.25V4ZM17.75 17.5923C17.6288 17.7256 17.5104 17.8615 17.3949 18H15.25V15.5H17.75V17.5923ZM23.4884 14H8.75V29.5H14.9966C15.2519 30.377 15.6007 31.2142 16.0315 32H8.75H6.25V29.5V14V11.5H8.75H29.25H31.75V14V14.4341C30.2855 13.832 28.6815 13.5 27 13.5C25.7808 13.5 24.6024 13.6745 23.4884 14ZM10.25 15.5H12.75V18H10.25V15.5ZM10.25 20.5H12.75V23H10.25V20.5ZM12.75 25.5H10.25V28H12.75V25.5ZM26.75 33.5C30.8921 33.5 34.25 30.1421 34.25 26C34.25 21.8579 30.8921 18.5 26.75 18.5C22.6079 18.5 19.25 21.8579 19.25 26C19.25 30.1421 22.6079 33.5 26.75 33.5ZM26.75 36C32.2728 36 36.75 31.5228 36.75 26C36.75 20.4772 32.2728 16 26.75 16C21.2272 16 16.75 20.4772 16.75 26C16.75 31.5228 21.2272 36 26.75 36ZM25 20.5H27.4698V26.317L31.3274 28.5441L30.0922 30.6835L25 27.7363V26.9498L25 20.5Z" fill="#1d1c1a"/>
</svg>
