<svg width="40" height="40" viewBox="0 0 40 40" fill="none" xmlns="http://www.w3.org/2000/svg">
<path fill-rule="evenodd" clip-rule="evenodd" d="M8.75 4H11.25V6.5H26.75V4H29.25V6.5H31.75V9H6.25V6.5H8.75V4ZM17.3949 18C17.5104 17.8615 17.6288 17.7256 17.75 17.5923V15.5H15.25V18H17.3949ZM8.75 14H23.4884C24.6024 13.6745 25.7808 13.5 27 13.5C28.6815 13.5 30.2855 13.832 31.75 14.4341V14V11.5H29.25H8.75H6.25V14V29.5V32H8.75H16.0315C15.6007 31.2142 15.2519 30.377 14.9966 29.5H8.75V14ZM12.75 15.5H10.25V18H12.75V15.5ZM12.75 20.5H10.25V23H12.75V20.5ZM10.25 25.5H12.75V28H10.25V25.5ZM34.25 26C34.25 30.1421 30.8921 33.5 26.75 33.5C22.6079 33.5 19.25 30.1421 19.25 26C19.25 21.8579 22.6079 18.5 26.75 18.5C30.8921 18.5 34.25 21.8579 34.25 26ZM36.75 26C36.75 31.5228 32.2728 36 26.75 36C21.2272 36 16.75 31.5228 16.75 26C16.75 20.4772 21.2272 16 26.75 16C32.2728 16 36.75 20.4772 36.75 26ZM29.6035 22.17L26.5 19.0664V21.0925C23.7166 21.223 21.5 23.521 21.5 26.3367C21.5 29.2362 23.8505 31.5867 26.75 31.5867C29.6495 31.5867 32 29.2362 32 26.3367C32 25.2031 31.6405 24.1528 31.0292 23.2945L30.8578 23.0537L29.3079 24.6036L29.4066 24.7705C29.6777 25.2293 29.8333 25.7644 29.8333 26.3367C29.8333 28.0395 28.4529 29.42 26.75 29.42C25.0471 29.42 23.6667 28.0395 23.6667 26.3367C23.6667 24.7179 24.914 23.3906 26.5 23.2633V25.2735L29.6035 22.17Z" fill="#1d1c1a"/>
</svg>
