<svg width="40" height="40" viewBox="0 0 40 40" fill="none" xmlns="http://www.w3.org/2000/svg">
<path fill-rule="evenodd" clip-rule="evenodd" d="M11.0096 7H5.5V9.30091H9.19405L13.4401 27.0572C12.54 27.6284 11.9426 28.6339 11.9426 29.7789C11.9426 31.558 13.3848 33.0002 15.1639 33.0002C16.7059 33.0002 17.9949 31.9166 18.311 30.4693H24.9019C25.2179 31.9166 26.5069 33.0002 28.049 33.0002C29.8281 33.0002 31.2703 31.558 31.2703 29.7789C31.2703 27.9998 29.8281 26.5576 28.049 26.5576C26.8566 26.5576 25.8155 27.2055 25.2586 28.1684H17.9543C17.4822 27.3521 16.6621 26.7622 15.6969 26.6015L15.2462 24.7166H30.8938L34.0314 10.9111H11.9449L11.0096 7ZM15.235 22.2166L13.2338 13.4111H30.8994L28.8982 22.2166H15.235Z" fill="#1d1c1a"/>
</svg>
