<svg width="40" height="40" viewBox="0 0 40 40" fill="none" xmlns="http://www.w3.org/2000/svg">
<path fill-rule="evenodd" clip-rule="evenodd" d="M30.9048 9.09515C28.1113 6.30162 23.5705 6.30162 20.777 9.09515L15.9061 13.966C13.1126 16.7595 13.1126 21.3004 15.9061 24.0939C16.5523 24.7401 17.6101 24.741 18.2574 24.0964C18.9354 23.4488 18.9353 22.3848 18.2571 21.7373C16.747 20.2379 16.7476 17.8055 18.259 16.3069L18.2599 16.306L23.117 11.4489L23.1178 11.4481C24.6171 9.93603 27.051 9.93603 28.5502 11.4481L28.5519 11.4498C30.064 12.949 30.064 15.3829 28.5519 16.8822L28.3495 17.0828L30.7056 19.4223L30.9048 19.223C33.6984 16.4295 33.6984 11.8887 30.9048 9.09515ZM24.0939 15.9061C23.4477 15.2599 22.3899 15.259 21.7426 15.9036C21.0646 16.5512 21.0647 17.6152 21.7429 18.2626C23.253 19.762 23.2524 22.1945 21.741 23.6931L21.7401 23.694L16.883 28.5511L16.8822 28.5519C15.3829 30.064 12.949 30.064 11.4498 28.5519L11.4481 28.5502C9.93603 27.051 9.93603 24.6171 11.4481 23.1178L11.6505 22.9172L9.29441 20.5777L9.09515 20.777C6.30162 23.5705 6.30162 28.1113 9.09515 30.9048C11.8887 33.6984 16.4295 33.6984 19.223 30.9048L24.0939 26.034C26.8874 23.2404 26.8874 18.6996 24.0939 15.9061Z" fill="#1d1c1a"/>
</svg>
