<svg width="40" height="40" viewBox="0 0 40 40" fill="none" xmlns="http://www.w3.org/2000/svg">
<path fill-rule="evenodd" clip-rule="evenodd" d="M8.38388 14.7679L14.2678 8.88398L12.5 7.11621L8.38388 11.2323L6.76777 9.61621L5 11.384L8.38388 14.7679ZM34.3839 11H15.3839V13.5H34.3839V11ZM15.3839 19H34.3839V21.5H15.3839V19ZM34.3839 27H15.3839V29.5H34.3839V27ZM12.3839 20.25C12.3839 21.6307 11.2646 22.75 9.88388 22.75C8.50317 22.75 7.38388 21.6307 7.38388 20.25C7.38388 18.8693 8.50317 17.75 9.88388 17.75C11.2646 17.75 12.3839 18.8693 12.3839 20.25ZM9.88388 30.75C11.2646 30.75 12.3839 29.6307 12.3839 28.25C12.3839 26.8693 11.2646 25.75 9.88388 25.75C8.50317 25.75 7.38388 26.8693 7.38388 28.25C7.38388 29.6307 8.50317 30.75 9.88388 30.75Z" fill="#1d1c1a"/>
</svg>
