<svg width="40" height="40" viewBox="0 0 40 40" fill="none" xmlns="http://www.w3.org/2000/svg">
<path fill-rule="evenodd" clip-rule="evenodd" d="M16.0001 4.5H24.0001V10.2499C24.8976 10.6004 25.7378 11.0654 26.5027 11.6269L31.4234 8.7859L35.4234 15.7141L30.797 18.3852C30.9302 19.0696 31.0001 19.7766 31.0001 20.5C31.0001 20.9038 30.9783 21.3025 30.9359 21.695L35.4234 24.2859L31.4234 31.2141L27.2282 28.792C26.2811 29.6183 25.191 30.285 24.0001 30.7501V35.5H16.0001V30.7501C14.8091 30.285 13.719 29.6183 12.7719 28.792L8.57666 31.2141L4.57666 24.2859L9.06422 21.695C9.02182 21.3025 9.00006 20.9038 9.00006 20.5C9.00006 19.7766 9.06988 19.0696 9.20316 18.3852L4.57666 15.7141L8.57666 8.7859L13.4974 11.6269C14.2623 11.0654 15.1025 10.6004 16.0001 10.2499V4.5ZM20.0001 24.5C22.2092 24.5 24.0001 22.7091 24.0001 20.5C24.0001 18.2909 22.2092 16.5 20.0001 16.5C17.7909 16.5 16.0001 18.2909 16.0001 20.5C16.0001 22.7091 17.7909 24.5 20.0001 24.5Z" fill="#1d1c1a"/>
</svg>
