<svg width="40" height="40" viewBox="0 0 40 40" fill="none" xmlns="http://www.w3.org/2000/svg">
<path fill-rule="evenodd" clip-rule="evenodd" d="M24.0001 10.2499V4.5H16.0001V10.2499C15.1025 10.6004 14.2623 11.0654 13.4974 11.6269L8.57666 8.7859L4.57666 15.7141L9.20316 18.3852C9.06988 19.0696 9.00006 19.7766 9.00006 20.5C9.00006 20.9038 9.02182 21.3025 9.06422 21.695L4.57666 24.2859L8.57666 31.2141L12.7719 28.792C13.719 29.6183 14.8091 30.285 16.0001 30.7501V35.5H24.0001V30.7501C25.191 30.285 26.2811 29.6183 27.2282 28.792L31.4234 31.2141L35.4234 24.2859L30.9359 21.695C30.9783 21.3025 31.0001 20.9038 31.0001 20.5C31.0001 19.7766 30.9302 19.0696 30.797 18.3852L35.4234 15.7141L31.4234 8.7859L26.5027 11.6269C25.7378 11.0654 24.8976 10.6004 24.0001 10.2499ZM30.5084 12.201L26.3391 14.6081L25.0233 13.6422C24.4316 13.2078 23.7826 12.8489 23.0906 12.5786L21.5001 11.9574V7H18.5001V11.9574L16.9095 12.5786C16.2175 12.8489 15.5685 13.2078 14.9768 13.6422L13.661 14.6081L9.49172 12.201L7.99172 14.799L11.998 17.1121L11.6571 18.8631C11.5543 19.3908 11.5001 19.9379 11.5001 20.5C11.5001 20.8139 11.517 21.123 11.5498 21.4265L11.7247 23.0457L7.99172 25.201L9.49172 27.799L13.0691 25.7336L14.4154 26.9081C15.1487 27.5479 15.9912 28.0628 16.9095 28.4214L18.5001 29.0426V33H21.5001V29.0426L23.0906 28.4214C24.0089 28.0628 24.8514 27.5479 25.5847 26.9082L26.931 25.7336L30.5084 27.799L32.0084 25.201L28.2754 23.0457L28.4504 21.4265C28.4832 21.123 28.5001 20.8139 28.5001 20.5C28.5001 19.9379 28.4458 19.3908 28.3431 18.8631L28.0021 17.1121L32.0084 14.799L30.5084 12.201ZM24.5001 20.5C24.5001 22.9853 22.4853 25 20.0001 25C17.5148 25 15.5001 22.9853 15.5001 20.5C15.5001 18.0147 17.5148 16 20.0001 16C22.4853 16 24.5001 18.0147 24.5001 20.5ZM22.0001 20.5C22.0001 21.6046 21.1046 22.5 20.0001 22.5C18.8955 22.5 18.0001 21.6046 18.0001 20.5C18.0001 19.3954 18.8955 18.5 20.0001 18.5C21.1046 18.5 22.0001 19.3954 22.0001 20.5Z" fill="#1d1c1a"/>
</svg>
