<svg width="40" height="40" viewBox="0 0 40 40" fill="none" xmlns="http://www.w3.org/2000/svg">
<path fill-rule="evenodd" clip-rule="evenodd" d="M19.5 5V20.5H35C35 21.357 34.9281 22.1919 34.7901 23C33.5937 30.0038 27.4273 35 20 35C11.7157 35 5 28.2843 5 20C5 12.5727 9.99622 6.40626 17 5.20991C17.8081 5.07187 18.643 5 19.5 5ZM17 23H32.2436C31.0849 28.5302 26.1265 32.5 20 32.5C13.0964 32.5 7.5 26.9036 7.5 20C7.5 13.8735 11.4698 8.91515 17 7.75638V23ZM31.666 15.5001L24.5 15.5001L24.5 8.33415C27.7831 9.6017 30.3984 12.217 31.666 15.5001ZM34.8678 18.0002L22 18.0001L22 5.13232C22.8584 5.2467 23.6939 5.43366 24.5 5.68686C29.1651 7.15208 32.8481 10.8351 34.3133 15.5001C34.5665 16.3063 34.7534 17.1417 34.8678 18.0002Z" fill="#1d1c1a"/>
</svg>
