<svg width="40" height="40" viewBox="0 0 40 40" fill="none" xmlns="http://www.w3.org/2000/svg">
<path fill-rule="evenodd" clip-rule="evenodd" d="M12.5 20C12.5 21.933 10.933 23.5 9 23.5C7.067 23.5 5.5 21.933 5.5 20C5.5 18.067 7.067 16.5 9 16.5C10.933 16.5 12.5 18.067 12.5 20ZM23.5 20C23.5 21.933 21.933 23.5 20 23.5C18.067 23.5 16.5 21.933 16.5 20C16.5 18.067 18.067 16.5 20 16.5C21.933 16.5 23.5 18.067 23.5 20ZM31 23.5C32.933 23.5 34.5 21.933 34.5 20C34.5 18.067 32.933 16.5 31 16.5C29.067 16.5 27.5 18.067 27.5 20C27.5 21.933 29.067 23.5 31 23.5Z" fill="#1d1c1a"/>
</svg>
