<svg width="40" height="40" viewBox="0 0 40 40" fill="none" xmlns="http://www.w3.org/2000/svg">
<path fill-rule="evenodd" clip-rule="evenodd" d="M21.8603 31.3503C21.2548 31.4488 20.6334 31.5 20 31.5C19.3666 31.5 18.7452 31.4488 18.1396 31.3503C17.9718 31.036 17.8003 30.698 17.6285 30.3374C17.0072 29.0325 16.3876 27.4396 15.9366 25.6093C17.202 25.3849 18.5611 25.2501 20 25.2501C21.4389 25.2501 22.7979 25.3849 24.0634 25.6093C23.6124 27.4396 22.9928 29.0325 22.3714 30.3374C22.1997 30.698 22.0281 31.036 21.8603 31.3503ZM20.1965 33.9986L20.1964 33.9988C21.3293 33.9832 22.4297 33.833 23.4824 33.5636C23.4824 33.5635 23.4824 33.5635 23.4824 33.5634C26.7116 32.7368 29.4911 30.7874 31.3804 28.1558C31.3804 28.1558 31.3804 28.1558 31.3805 28.1558C31.8656 27.4801 32.292 26.7594 32.6522 26.0012C32.6522 26.0012 32.6522 26.0012 32.6522 26.0012C33.5164 24.1824 34 22.1477 34 20C34 12.268 27.732 6 20 6C12.268 6 6 12.268 6 20C6 22.1476 6.48359 24.1823 7.34781 26.0011C7.34779 26.0012 7.34778 26.0012 7.34777 26.0012C7.70803 26.7594 8.13444 27.4801 8.61954 28.1558C8.61956 28.1558 8.61958 28.1558 8.6196 28.1557C10.5089 30.7874 13.2884 32.7368 16.5175 33.5634C16.5175 33.5635 16.5176 33.5635 16.5176 33.5636C17.5702 33.833 18.6706 33.9832 19.8035 33.9988L19.8034 33.9986C19.8689 33.9995 19.9344 34 20 34C20.0656 34 20.1311 33.9995 20.1965 33.9986ZM14.8696 30.295C14.3606 29.0912 13.8772 27.7094 13.5009 26.1739C12.5715 26.4406 11.7113 26.7471 10.928 27.0683C11.98 28.4166 13.326 29.5243 14.8696 30.295ZM9.59991 24.9143C10.6156 24.48 11.7606 24.0624 13.0202 23.7119C12.8492 22.5401 12.75 21.3001 12.75 19.9998C12.75 18.6998 12.8492 17.4599 13.0201 16.2883C11.7605 15.9378 10.6155 15.5202 9.59982 15.0859C8.89451 16.576 8.5 18.2419 8.5 20C8.5 21.7581 8.89454 23.4241 9.59991 24.9143ZM10.9279 12.9318C11.7112 13.2531 12.5713 13.5596 13.5008 13.8263C13.8771 12.2907 14.3604 10.9089 14.8693 9.70513C13.3258 10.4759 11.9799 11.5836 10.9279 12.9318ZM18.1394 8.64974C18.745 8.55122 19.3665 8.5 20 8.5C20.6335 8.5 21.2549 8.55122 21.8605 8.64973C22.0283 8.96394 22.1998 9.3018 22.3714 9.66221C22.9928 10.9672 23.6125 12.5603 24.0635 14.3909C22.798 14.6153 21.439 14.7501 20 14.7501C18.561 14.7501 17.2019 14.6153 15.9364 14.3909C16.3874 12.5603 17.0071 10.9672 17.6285 9.66221C17.8002 9.30181 17.9717 8.96394 18.1394 8.64974ZM25.1306 9.70509C25.6395 10.9089 26.1229 12.2907 26.4992 13.8263C27.4286 13.5596 28.2888 13.2531 29.0721 12.9318C28.0201 11.5835 26.6742 10.4758 25.1306 9.70509ZM30.4002 15.0859C29.3845 15.5202 28.2394 15.9378 26.9798 16.2883C27.1508 17.4599 27.25 18.6998 27.25 19.9998C27.25 21.3 27.1508 22.5401 26.9797 23.7119C28.2393 24.0624 29.3844 24.48 30.4001 24.9143C31.1055 23.4242 31.5 21.7582 31.5 20C31.5 18.2419 31.1055 16.576 30.4002 15.0859ZM29.072 27.0683C28.2887 26.7471 27.4285 26.4406 26.499 26.1739C26.1227 27.7094 25.6393 29.0912 25.1304 30.295C26.674 29.5243 28.02 28.4166 29.072 27.0683ZM24.5338 23.1537C24.6712 22.1532 24.75 21.0998 24.75 19.9998C24.75 18.9 24.6712 17.8468 24.5339 16.8465C23.125 17.0983 21.6085 17.2501 20 17.2501C18.3914 17.2501 16.875 17.0983 15.4661 16.8465C15.3287 17.8468 15.25 18.9 15.25 19.9998C15.25 21.0998 15.3288 22.1532 15.4661 23.1537C16.875 22.9019 18.3915 22.7501 20 22.7501C21.6085 22.7501 23.1249 22.9019 24.5338 23.1537Z" fill="#1d1c1a"/>
</svg>
