<svg width="40" height="40" viewBox="0 0 40 40" fill="none" xmlns="http://www.w3.org/2000/svg">
<path fill-rule="evenodd" clip-rule="evenodd" d="M31 4H3V7.00001L16.9999 11.6824L30.9999 6.99997V9.49997L16.9999 14.3176L3 9.50001V22H16.1535C17.8216 17.0581 22.4952 13.4999 27.9999 13.4999C29.0341 13.4999 30.0389 13.6255 31 13.8623V4ZM31 16.4577C35.057 17.7321 37.9999 21.5223 37.9999 25.9999C37.9999 31.5228 33.5227 35.9999 27.9999 35.9999C22.477 35.9999 17.9999 31.5228 17.9999 25.9999C17.9999 21.0013 21.6675 16.8592 26.4585 16.118C26.5527 16.1034 26.6473 16.0902 26.7423 16.0782C26.8838 16.0605 27.0262 16.0457 27.1694 16.0339C27.4432 16.0114 27.7202 15.9999 27.9999 15.9999C29.0451 15.9999 30.0529 16.1603 31 16.4577ZM31.0812 21.4185L29.3879 23.1118L31.0812 24.8051L32.7745 23.1118L31.0812 21.4185ZM28.6592 23.8406L24.2516 28.2482L24.0966 30.0966L25.9449 29.9415L30.3525 25.5339L28.6592 23.8406Z" fill="#1d1c1a"/>
</svg>
