<svg width="40" height="40" viewBox="0 0 40 40" fill="none" xmlns="http://www.w3.org/2000/svg">
<path fill-rule="evenodd" clip-rule="evenodd" d="M6.11612 7.88398L32.1161 33.884L33.8839 32.1162L28.3964 26.6287L28.3964 26.6286L26.5672 24.7994L26.5671 24.7994L24.3077 22.54L24.3077 22.5399L21.988 20.2202L21.988 20.2203L19.7797 18.012L19.7798 18.012L17.4601 15.6923L17.46 15.6923L15.9018 14.1341L15.9019 14.1341L13.9527 12.1849L13.9526 12.185L7.88388 6.11621L6.11612 7.88398ZM5 20C5 20 6.51001 17.282 9.53003 14.8333L11.3087 16.612C10.9974 16.8566 10.702 17.1066 10.4224 17.3582C9.36281 18.3119 8.55584 19.2686 8.00738 20C8.55584 20.7314 9.36281 21.6881 10.4224 22.6418C12.6241 24.6233 15.8042 26.5 20 26.5C20.3919 26.5 20.7749 26.4836 21.1491 26.4523L23.347 28.6503C22.3016 28.8734 21.186 29 20 29C10 29 5 20 5 20ZM19.6871 24.9904C17.1749 24.8352 15.1648 22.8251 15.0096 20.3129L19.6871 24.9904ZM30.47 25.1667L28.6913 23.388C29.0026 23.1434 29.298 22.8934 29.5776 22.6418C30.6372 21.6881 31.4442 20.7314 31.9926 20C31.4442 19.2686 30.6372 18.3119 29.5776 17.3582C27.3759 15.3767 24.1958 13.5 20 13.5C19.6081 13.5 19.2252 13.5164 18.851 13.5477L16.6531 11.3497C17.6984 11.1266 18.814 11 20 11C30 11 35 20 35 20C35 20 33.49 22.718 30.47 25.1667ZM20.313 15.0096C22.8251 15.1648 24.8352 17.1749 24.9904 19.687L20.313 15.0096ZM7.18225 21.2198L7.18086 21.2222C7.18051 21.2228 7.18134 21.2214 7.18334 21.2179L7.18225 21.2198ZM7.18225 18.7802L7.18334 18.7821C7.18193 18.7797 7.18111 18.7782 7.18086 18.7778L7.18225 18.7802ZM32.8178 18.7802L32.8191 18.7778C32.8195 18.7772 32.8187 18.7786 32.8167 18.7821L32.8178 18.7802Z" fill="#1d1c1a"/>
</svg>
