<svg width="40" height="40" viewBox="0 0 40 40" fill="none" xmlns="http://www.w3.org/2000/svg">
<path fill-rule="evenodd" clip-rule="evenodd" d="M19.9998 28.3332C11.1109 28.3332 6.6665 19.9998 6.6665 19.9998C6.6665 19.9998 11.1109 11.6665 19.9998 11.6665C28.8887 11.6665 33.3332 19.9998 33.3332 19.9998C33.3332 19.9998 28.8887 28.3332 19.9998 28.3332ZM8.60628 21.1292L8.60504 21.1315C8.60474 21.1321 8.60548 21.1307 8.60725 21.1275L8.60628 21.1292ZM11.4864 17.5538C10.5446 18.4368 9.82725 19.3226 9.33973 19.9998C9.82725 20.6771 10.5446 21.5629 11.4864 22.4459C13.4435 24.2806 16.2702 26.0184 19.9998 26.0184C23.7294 26.0184 26.5562 24.2806 28.5132 22.4459C29.4551 21.5629 30.1724 20.6771 30.6599 19.9998C30.1724 19.3226 29.4551 18.4368 28.5132 17.5538C26.5562 15.719 23.7294 13.9813 19.9998 13.9813C16.2702 13.9813 13.4435 15.719 11.4864 17.5538ZM8.60628 18.8704L8.60725 18.8722C8.60548 18.8689 8.60474 18.8676 8.60504 18.8681L8.60628 18.8704ZM31.3934 18.8704L31.3946 18.8681L31.3947 18.868C31.3947 18.868 31.3939 18.8694 31.3924 18.8722L31.3934 18.8704ZM24.4444 19.9998C24.4444 22.5566 22.4545 24.6294 19.9999 24.6294C17.5453 24.6294 15.5555 22.5566 15.5555 19.9998C15.5555 17.4429 17.5453 15.3701 19.9999 15.3701C22.4545 15.3701 24.4444 17.4429 24.4444 19.9998ZM21.7778 19.998C21.7778 21.0207 20.9819 21.8498 20 21.8498C19.0182 21.8498 18.2222 21.0207 18.2222 19.998C18.2222 18.9752 19.0182 18.1461 20 18.1461C20.9819 18.1461 21.7778 18.9752 21.7778 19.998Z" fill="#1d1c1a"/>
</svg>
