<svg width="40" height="40" viewBox="0 0 40 40" fill="none" xmlns="http://www.w3.org/2000/svg">
<path fill-rule="evenodd" clip-rule="evenodd" d="M32.5 20C32.5 26.9036 26.9036 32.5 20 32.5C13.0964 32.5 7.5 26.9036 7.5 20C7.5 13.0964 13.0964 7.5 20 7.5C26.9036 7.5 32.5 13.0964 32.5 20ZM35 20C35 28.2843 28.2843 35 20 35C11.7157 35 5 28.2843 5 20C5 11.7157 11.7157 5 20 5C28.2843 5 35 11.7157 35 20ZM20.0028 16.1804C20.5228 16.1804 20.9695 15.9937 21.3428 15.6204C21.7295 15.2337 21.9228 14.7804 21.9228 14.2604C21.9228 13.7404 21.7295 13.2937 21.3428 12.9204C20.9695 12.547 20.5228 12.3604 20.0028 12.3604C19.4828 12.3604 19.0295 12.547 18.6428 12.9204C18.2695 13.2937 18.0828 13.7404 18.0828 14.2604C18.0828 14.7804 18.2695 15.2337 18.6428 15.6204C19.0295 15.9937 19.4828 16.1804 20.0028 16.1804ZM18.3428 17.0004V27.0004H21.6628V17.0004H18.3428Z" fill="#1d1c1a"/>
</svg>
