<svg width="40" height="40" viewBox="0 0 40 40" fill="none" xmlns="http://www.w3.org/2000/svg">
<path fill-rule="evenodd" clip-rule="evenodd" d="M34 14.5C34 19.1944 30.1944 23 25.5 23C24.7356 23 23.9948 22.8991 23.2901 22.7099L12 34H6V28H9V25H12V22H15V19L17.2901 16.7099C17.1009 16.0052 17 15.2644 17 14.5C17 9.80558 20.8056 6 25.5 6C30.1944 6 34 9.80558 34 14.5ZM30 13C30 14.6569 28.6569 16 27 16C25.3431 16 24 14.6569 24 13C24 11.3431 25.3431 10 27 10C28.6569 10 30 11.3431 30 13Z" fill="#1d1c1a"/>
</svg>
