<svg width="40" height="40" viewBox="0 0 40 40" fill="none" xmlns="http://www.w3.org/2000/svg">
<path fill-rule="evenodd" clip-rule="evenodd" d="M15 11C15.8454 11 16.6636 11.1166 17.4394 11.3345C15.0252 13.4426 13.5 16.5432 13.5 20C13.5 23.4568 15.0252 26.5574 17.4394 28.6655C16.6636 28.8834 15.8454 29 15 29C10.0294 29 6 24.9706 6 20C6 15.0294 10.0294 11 15 11ZM25 29C29.9706 29 34 24.9706 34 20C34 15.0294 29.9706 11 25 11C20.0294 11 16 15.0294 16 20C16 24.9706 20.0294 29 25 29Z" fill="#1d1c1a"/>
</svg>
