<svg width="40" height="40" viewBox="0 0 40 40" fill="none" xmlns="http://www.w3.org/2000/svg">
<path d="M19.088 17.8483C18.304 18.6323 17.32 19.0243 16.136 19.0243C14.952 19.0243 13.96 18.6323 13.16 17.8483C12.36 17.0483 11.96 16.0803 11.96 14.9443C11.96 13.8083 12.36 12.8483 13.16 12.0643C13.96 11.2643 14.952 10.8643 16.136 10.8643C17.32 10.8643 18.304 11.2563 19.088 12.0403C19.888 12.8083 20.288 13.7763 20.288 14.9443C20.288 16.0803 19.888 17.0483 19.088 17.8483ZM13.952 25.3603L24.8 13.3603L26.384 14.2723L15.536 26.2963L13.952 25.3603ZM15.2 15.8803C15.44 16.1363 15.744 16.2643 16.112 16.2643C16.48 16.2643 16.784 16.1363 17.024 15.8803C17.28 15.6083 17.408 15.2963 17.408 14.9443C17.408 14.5603 17.288 14.2483 17.048 14.0083C16.808 13.7523 16.496 13.6243 16.112 13.6243C15.744 13.6243 15.44 13.7523 15.2 14.0083C14.96 14.2643 14.84 14.5763 14.84 14.9443C14.84 15.3123 14.96 15.6243 15.2 15.8803ZM27.656 27.1123C26.872 27.8963 25.888 28.2883 24.704 28.2883C23.52 28.2883 22.528 27.8963 21.728 27.1123C20.928 26.3123 20.528 25.3443 20.528 24.2083C20.528 23.0723 20.928 22.1123 21.728 21.3283C22.528 20.5283 23.52 20.1283 24.704 20.1283C25.888 20.1283 26.872 20.5283 27.656 21.3283C28.456 22.1123 28.856 23.0723 28.856 24.2083C28.856 25.3443 28.456 26.3123 27.656 27.1123ZM23.768 25.1443C24.008 25.4003 24.312 25.5283 24.68 25.5283C25.048 25.5283 25.352 25.4003 25.592 25.1443C25.848 24.8723 25.976 24.5603 25.976 24.2083C25.976 23.8243 25.856 23.5123 25.616 23.2723C25.376 23.0163 25.064 22.8883 24.68 22.8883C24.312 22.8883 24.008 23.0163 23.768 23.2723C23.528 23.5283 23.408 23.8403 23.408 24.2083C23.408 24.5763 23.528 24.8883 23.768 25.1443Z" fill="#1d1c1a"/>
</svg>
