<svg width="40" height="40" viewBox="0 0 40 40" fill="none" xmlns="http://www.w3.org/2000/svg">
<path fill-rule="evenodd" clip-rule="evenodd" d="M20.5005 2.99951H2.00049V31.4995H16.04C15.6932 30.7058 15.4265 29.869 15.25 28.9995H4.50049V5.49951H18.0005V18.3749C18.7291 17.5238 19.5701 16.7718 20.5005 16.1418V2.99951ZM17.2507 19.3425V6.25H5.25065V24.25H15.2019C15.529 22.4503 16.2415 20.7849 17.2507 19.3425ZM11.2502 28.2498C12.0786 28.2498 12.7502 27.5783 12.7502 26.7498C12.7502 25.9214 12.0786 25.2498 11.2502 25.2498C10.4217 25.2498 9.75016 25.9214 9.75016 26.7498C9.75016 27.5783 10.4217 28.2498 11.2502 28.2498ZM14.7507 8.75H7.75065V21.75H14.7507V8.75ZM27.5 33.9998C31.6421 33.9998 35 30.642 35 26.4998C35 22.3577 31.6421 18.9998 27.5 18.9998C23.3579 18.9998 20 22.3577 20 26.4998C20 30.642 23.3579 33.9998 27.5 33.9998ZM27.5 36.4998C33.0228 36.4998 37.5 32.0227 37.5 26.4998C37.5 20.977 33.0228 16.4998 27.5 16.4998C21.9772 16.4998 17.5 20.977 17.5 26.4998C17.5 32.0227 21.9772 36.4998 27.5 36.4998ZM29.3337 28.6257L27.5003 31.0352L25.667 28.6257C26.1763 28.2492 26.8128 28.0233 27.5003 28.0233C28.1878 28.0233 28.8244 28.2492 29.3337 28.6257ZM22.0003 23.8067C23.5332 22.6722 25.4378 21.9995 27.5003 21.9995C29.5628 21.9995 31.4675 22.6722 33.0003 23.8067L32.0837 25.0114C30.8105 24.0677 29.2216 23.5055 27.5003 23.5055C25.779 23.5055 24.1901 24.0677 22.917 25.0114L22.0003 23.8067ZM23.8337 26.2162C24.8573 25.4582 26.1253 25.0114 27.5003 25.0114C28.8753 25.0114 30.1434 25.4582 31.167 26.2162L30.2503 27.4209C29.4864 26.8537 28.5341 26.5174 27.5003 26.5174C26.4665 26.5174 25.5142 26.8537 24.7503 27.4209L23.8337 26.2162Z" fill="#1d1c1a"/>
</svg>
