<svg width="40" height="40" viewBox="0 0 40 40" fill="none" xmlns="http://www.w3.org/2000/svg">
<path fill-rule="evenodd" clip-rule="evenodd" d="M20 10C21.6569 10 23 8.65685 23 7C23 5.34315 21.6569 4 20 4C18.3431 4 17 5.34315 17 7C17 8.65685 18.3431 10 20 10ZM10 10.5242V15.4784C8.71986 16.6869 7.77321 18.245 7.31265 20H6C4.89543 20 4 20.8954 4 22V24C4 25.1046 4.89543 26 6 26H7.68652C8.51911 28.0715 10.0556 29.7843 12 30.8423V32.5C12 33.8807 13.1193 35 14.5 35C15.8807 35 17 33.8807 17 32.5V32H22V32.5C22 33.8807 23.1193 35 24.5 35C25.8807 35 27 33.8807 27 32.5V30.8423C29.3131 29.5837 31.0491 27.3983 31.7092 24.7846C32.9293 24.997 34.2542 24.4544 35.1154 23.5662C36.3658 22.2764 36.8575 20.0321 35.3923 18.6115C34.8967 18.131 34.1053 18.1433 33.6248 18.6389C33.1442 19.1346 33.1565 19.9259 33.6521 20.4065C33.7272 20.4792 33.8095 20.6283 33.7835 20.9003C33.7573 21.1753 33.6173 21.5198 33.3205 21.826C33.0237 22.1321 32.6837 22.2827 32.4096 22.3175C32.2178 22.3418 32.0859 22.31 31.9985 22.2636C31.9072 17.0598 27.6603 12.8696 22.4348 12.8696H16.5652C16.1917 12.8696 15.8232 12.891 15.4608 12.9326C12.817 10.8965 10 9.06839 10 10.5242ZM16.75 17C16.75 16.3096 17.3096 15.75 18 15.75H22C22.6904 15.75 23.25 16.3096 23.25 17C23.25 17.6904 22.6904 18.25 22 18.25H18C17.3096 18.25 16.75 17.6904 16.75 17ZM12.25 21C12.9404 21 13.5 20.4404 13.5 19.75C13.5 19.0596 12.9404 18.5 12.25 18.5C11.5596 18.5 11 19.0596 11 19.75C11 20.4404 11.5596 21 12.25 21Z" fill="#1d1c1a"/>
</svg>
