<svg width="40" height="40" viewBox="0 0 40 40" fill="none" xmlns="http://www.w3.org/2000/svg">
<path fill-rule="evenodd" clip-rule="evenodd" d="M20 32.5C26.9036 32.5 32.5 26.9036 32.5 20C32.5 13.0964 26.9036 7.5 20 7.5C13.0964 7.5 7.5 13.0964 7.5 20C7.5 26.9036 13.0964 32.5 20 32.5ZM20 35C28.2843 35 35 28.2843 35 20C35 11.7157 28.2843 5 20 5C11.7157 5 5 11.7157 5 20C5 28.2843 11.7157 35 20 35ZM13 28L22 20L13 12V28ZM15.5 17.5671V22.4329L18.237 20L15.5 17.5671ZM20 28V24L24.5 20L20 16V12L29 20L20 28Z" fill="#1d1c1a"/>
</svg>
