<svg width="40" height="40" viewBox="0 0 40 40" fill="none" xmlns="http://www.w3.org/2000/svg">
<path fill-rule="evenodd" clip-rule="evenodd" d="M20 35C28.2843 35 35 28.2843 35 20C35 11.7157 28.2843 5 20 5C11.7157 5 5 11.7157 5 20C5 28.2843 11.7157 35 20 35ZM21.4043 22H18.2043C18.2043 20.7469 19.1221 19.9067 19.9746 19.1262C20.714 18.4494 21.4043 17.8175 21.4043 17C21.4043 16.3 20.9443 15.84 19.9243 15.84C18.8243 15.84 18.1643 16.58 17.7643 17.52L15.0043 15.94C15.8843 13.88 17.8243 12.72 20.0443 12.72C22.3243 12.72 24.6043 14.12 24.6043 16.72C24.6043 18.4933 23.4712 19.5371 22.5535 20.3825C21.929 20.9578 21.4043 21.4412 21.4043 22ZM21.7043 25.38C21.7043 26.42 20.8443 27.28 19.8043 27.28C18.7643 27.28 17.9043 26.42 17.9043 25.38C17.9043 24.34 18.7643 23.48 19.8043 23.48C20.8443 23.48 21.7043 24.34 21.7043 25.38Z" fill="#1d1c1a"/>
</svg>
