<svg width="40" height="40" viewBox="0 0 40 40" fill="none" xmlns="http://www.w3.org/2000/svg">
<path d="M17.3333 22.6593H22.6667C22.6667 20.4794 28 19.0261 28 14.3187C28 10.2115 24.2 8 20.4 8C16.7 8 13.4667 9.83242 12 13.0865L16.6 15.5824C17.2667 14.0975 18.3667 12.9286 20.2 12.9286C21.9 12.9286 22.6667 13.6552 22.6667 14.761C22.6667 17.5412 17.3333 18.9629 17.3333 22.6593ZM20 31C21.7333 31 23.1667 29.6415 23.1667 27.9986C23.1667 26.3558 21.7333 24.9973 20 24.9973C18.2667 24.9973 16.8333 26.3558 16.8333 27.9986C16.8333 29.6415 18.2667 31 20 31Z" fill="#1d1c1a"/>
</svg>
