<svg width="40" height="40" viewBox="0 0 40 40" fill="none" xmlns="http://www.w3.org/2000/svg">
<path fill-rule="evenodd" clip-rule="evenodd" d="M26 10L20 16V12C15.5817 12 12 15.5817 12 20C12 21.4836 12.4039 22.8729 13.1076 24.064L10.2185 26.9531C8.82159 24.9914 8 22.5917 8 20C8 13.3726 13.3726 8 20 8V4L26 10ZM28 20C28 24.4183 24.4183 28 20 28V24L14 30L20 36V32C26.6274 32 32 26.6274 32 20C32 17.4083 31.1784 15.0086 29.7815 13.0469L26.8924 15.9361C27.5961 17.1271 28 18.5164 28 20Z" fill="#1d1c1a"/>
</svg>
