<svg width="40" height="40" viewBox="0 0 40 40" fill="none" xmlns="http://www.w3.org/2000/svg">
<path fill-rule="evenodd" clip-rule="evenodd" d="M18 19.2143L21.6957 14.3571C20.6691 13.5982 19.3859 13.1429 18 13.1429C16.6141 13.1429 15.3309 13.5982 14.3044 14.3571L18 19.2143ZM18 1C13.8424 1 10.003 2.35595 6.91305 4.64286L8.76087 7.07143C11.3273 5.16905 14.5302 4.03571 18 4.03571C21.4698 4.03571 24.6727 5.16905 27.2391 7.07143L29.087 4.64286C25.997 2.35595 22.1576 1 18 1ZM18 7.07143C15.2283 7.07143 12.6721 7.97202 10.6087 9.5L12.4565 11.9286C13.9964 10.7851 15.9161 10.1071 18 10.1071C20.0839 10.1071 22.0036 10.7851 23.5435 11.9286L25.3913 9.5C23.3279 7.97202 20.7717 7.07143 18 7.07143ZM4.64286 32.5714H1V22.8571H19.7405C18.3282 24.8818 17.5 27.3442 17.5 30C17.5 30.8814 17.5912 31.7415 17.7648 32.5714H7.67857V35H4.64286V32.5714ZM11.9286 26.4997H16.7857V28.9283H11.9286V26.4997ZM30 40C24.4772 40 20 35.5228 20 30C20 24.4772 24.4772 20 30 20C35.5228 20 40 24.4772 40 30C40 35.5228 35.5228 40 30 40ZM26.5 31.9229H28.8077V24.2306H31.1154V31.9229H33.4231L29.9615 35.769L26.5 31.9229Z" fill="#1d1c1a"/>
</svg>
