<svg width="40" height="40" viewBox="0 0 40 40" fill="none" xmlns="http://www.w3.org/2000/svg">
<path fill-rule="evenodd" clip-rule="evenodd" d="M20 21.2143L23.6957 16.3571C22.6691 15.5982 21.3859 15.1429 20 15.1429C18.6141 15.1429 17.3309 15.5982 16.3044 16.3571L20 21.2143ZM20 3C15.8424 3 12.003 4.35595 8.91305 6.64286L10.7609 9.07143C13.3273 7.16905 16.5302 6.03571 20 6.03571C23.4698 6.03571 26.6727 7.16905 29.2391 9.07143L31.087 6.64286C27.997 4.35595 24.1576 3 20 3ZM20 9.07143C17.2283 9.07143 14.6721 9.97202 12.6087 11.5L14.4565 13.9286C15.9964 12.7851 17.9161 12.1071 20 12.1071C22.0839 12.1071 24.0036 12.7851 25.5435 13.9286L27.3913 11.5C25.3279 9.97202 22.7717 9.07143 20 9.07143ZM6.64286 34.5714H3V24.8571H37V34.5714H33.3571V37H30.3214V34.5714H9.67857V37H6.64286V34.5714ZM13.9286 28.4997H18.7857V30.9283H13.9286V28.4997ZM21.2143 28.4997H26.0714V30.9283H21.2143V28.4997ZM33.3571 28.4997H28.5V30.9283H33.3571V28.4997Z" fill="#1d1c1a"/>
</svg>
