<svg width="40" height="40" viewBox="0 0 40 40" fill="none" xmlns="http://www.w3.org/2000/svg">
<path d="M21.04 22.78H18.52V23.764H23.56V26.116H18.52V28.3H14.68V26.116H13V23.764H14.68V22.78H13V19.42H14.68V11.5H21.04C22.688 11.5 24.08 12.06 25.216 13.18C26.352 14.3 26.92 15.66 26.92 17.26C26.92 18.844 26.352 20.164 25.216 21.22C24.096 22.26 22.704 22.78 21.04 22.78ZM18.52 15.1V19.42H21.04C21.632 19.42 22.12 19.212 22.504 18.796C22.888 18.38 23.08 17.868 23.08 17.26C23.08 16.652 22.888 16.14 22.504 15.724C22.12 15.308 21.632 15.1 21.04 15.1H18.52Z" fill="#1d1c1a"/>
</svg>
