<svg width="40" height="40" viewBox="0 0 40 40" fill="none" xmlns="http://www.w3.org/2000/svg">
<path fill-rule="evenodd" clip-rule="evenodd" d="M20 35C28.2843 35 35 28.2843 35 20C35 11.7157 28.2843 5 20 5C11.7157 5 5 11.7157 5 20C5 28.2843 11.7157 35 20 35ZM25.7455 17.8C25.7455 20.46 23.6055 22.4 20.8455 22.4H18.7455V23.22H22.9455V25.18H18.7455V27H15.5455V25.18H14.1455V23.22H15.5455V22.4H14.1455V19.6H15.5455V13H20.8455C23.6055 13 25.7455 15.14 25.7455 17.8ZM20.8455 16H18.7455V19.6H20.8455C21.8255 19.6 22.5455 18.82 22.5455 17.8C22.5455 16.78 21.8255 16 20.8455 16Z" fill="#1d1c1a"/>
</svg>
