<svg width="40" height="40" viewBox="0 0 40 40" fill="none" xmlns="http://www.w3.org/2000/svg">
<path fill-rule="evenodd" clip-rule="evenodd" d="M20 35C28.2843 35 35 28.2843 35 20C35 11.7157 28.2843 5 20 5C11.7157 5 5 11.7157 5 20C5 28.2843 11.7157 35 20 35ZM20 28.5C21.8227 28.5 23.5114 27.9263 24.8953 26.9497L13.0503 15.1047C12.0737 16.4886 11.5 18.1773 11.5 20C11.5 24.6944 15.3056 28.5 20 28.5ZM14.7996 13.276L26.724 25.2004C27.8374 23.763 28.5 21.9589 28.5 20C28.5 15.3056 24.6944 11.5 20 11.5C18.0411 11.5 16.237 12.1626 14.7996 13.276ZM20 31C26.0751 31 31 26.0751 31 20C31 13.9249 26.0751 9 20 9C13.9249 9 9 13.9249 9 20C9 26.0751 13.9249 31 20 31Z" fill="#1d1c1a"/>
</svg>
