<svg width="40" height="40" viewBox="0 0 40 40" fill="none" xmlns="http://www.w3.org/2000/svg">
<path fill-rule="evenodd" clip-rule="evenodd" d="M27.7725 29.7903C25.6387 31.4866 22.9377 32.5 20 32.5C13.0964 32.5 7.5 26.9036 7.5 20C7.5 17.0623 8.51339 14.3613 10.2097 12.2275L27.7725 29.7903ZM29.5652 28.0476L11.9524 10.4348C14.1269 8.60343 16.9346 7.5 20 7.5C26.9036 7.5 32.5 13.0964 32.5 20C32.5 23.0654 31.3966 25.8731 29.5652 28.0476ZM35 20C35 28.2843 28.2843 35 20 35C11.7157 35 5 28.2843 5 20C5 11.7157 11.7157 5 20 5C28.2843 5 35 11.7157 35 20Z" fill="#1d1c1a"/>
</svg>
