<svg width="40" height="40" viewBox="0 0 40 40" fill="none" xmlns="http://www.w3.org/2000/svg">
<path fill-rule="evenodd" clip-rule="evenodd" d="M18.5 3H21.5V8.09284C26.9281 8.76971 31.2303 13.0719 31.9072 18.5H37V21.5H31.9072C31.2303 26.9281 26.9281 31.2303 21.5 31.9072V37H18.5V31.9072C13.0719 31.2303 8.76971 26.9281 8.09284 21.5H3V18.5H8.09284C8.76971 13.0719 13.0719 8.76971 18.5 8.09284V3ZM29.5 20C29.5 25.2467 25.2467 29.5 20 29.5C14.7533 29.5 10.5 25.2467 10.5 20C10.5 14.7533 14.7533 10.5 20 10.5C25.2467 10.5 29.5 14.7533 29.5 20ZM20 27C23.866 27 27 23.866 27 20C27 16.134 23.866 13 20 13C16.134 13 13 16.134 13 20C13 23.866 16.134 27 20 27Z" fill="#1d1c1a"/>
</svg>
