<svg width="40" height="40" viewBox="0 0 40 40" fill="none" xmlns="http://www.w3.org/2000/svg">
<path d="M20 32L24.6667 25.8667C23.3704 24.9083 21.75 24.3333 20 24.3333C18.25 24.3333 16.6296 24.9083 15.3333 25.8667L20 32ZM20 9C14.75 9 9.90185 10.7122 6 13.6L8.33333 16.6667C11.5741 14.2644 15.6185 12.8333 20 12.8333C24.3815 12.8333 28.4259 14.2644 31.6667 16.6667L34 13.6C30.0981 10.7122 25.25 9 20 9ZM20 16.6667C16.5 16.6667 13.2722 17.8039 10.6667 19.7333L13 22.8C14.9444 21.3561 17.3685 20.5 20 20.5C22.6315 20.5 25.0556 21.3561 27 22.8L29.3333 19.7333C26.7278 17.8039 23.5 16.6667 20 16.6667Z" fill="#1d1c1a"/>
</svg>
