<svg width="40" height="40" viewBox="0 0 40 40" fill="none" xmlns="http://www.w3.org/2000/svg">
<path d="M24.12 11.1999L18.48 21.5439V27.9999H14.64V21.5439L9 11.1999H13.368L16.56 17.6799L19.752 11.1999H24.12Z" fill="#1d1c1a"/>
<path d="M24.6212 16.9599V15.1119L28.1012 11.5839C28.6132 11.0719 28.8692 10.6479 28.8692 10.3119C28.8692 9.87992 28.6212 9.66392 28.1252 9.66392C27.5812 9.66392 27.1572 10.0399 26.8532 10.7919L24.4772 9.44792C25.1652 7.83193 26.3972 7.02393 28.1732 7.02393C29.2132 7.02393 30.0772 7.31193 30.7652 7.88792C31.4692 8.44793 31.8212 9.17593 31.8212 10.0719C31.8212 11.0319 31.2612 12.0719 30.1412 13.1919L29.0132 14.3199H31.9652V16.9599H24.6212Z" fill="#1d1c1a"/>
</svg>
