<svg width="40" height="40" viewBox="0 0 40 40" fill="none" xmlns="http://www.w3.org/2000/svg">
<path d="M24.12 11.1999L18.48 21.5439V27.9999H14.64V21.5439L9 11.1999H13.368L16.56 17.6799L19.752 11.1999H24.12Z" fill="#1d1c1a"/>
<path d="M29.8292 11.2959C31.2052 11.7439 31.8932 12.6559 31.8932 14.0319C31.8932 15.0879 31.5572 15.8959 30.8852 16.4559C30.2292 17.0159 29.3012 17.2959 28.1012 17.2959C26.1812 17.2959 24.8932 16.5759 24.2372 15.1359L26.7092 13.6959C26.9492 14.4159 27.4132 14.7759 28.1012 14.7759C28.6612 14.7759 28.9412 14.5279 28.9412 14.0319C28.9412 13.5519 28.6212 13.3119 27.9812 13.3119H27.4052L26.3972 11.8239L27.8852 9.99986H24.6932V7.35986H31.4372V9.39986L29.8292 11.2959Z" fill="#1d1c1a"/>
</svg>
