<svg
    width="400"
    height="400"
    viewBox="0 0 400 400"
    fill="none"
    xmlns="http://www.w3.org/2000/svg"
  >
    <g filter="url(#filter0_d)">
      <path
        fill-rule="evenodd"
        clip-rule="evenodd"
        d="M241.012 100.255L241.012 100.255L241.012 100.254L188.571 70L136.398 100.255L136.398 100.254V115.356L125.372 108.995L73.1997 139.25L125.641 169.639L125.641 169.639L73.199 139.25V155.697L62.1727 149.335L10 179.59V211.142L62.4416 241.397L72.1866 235.746L72.1233 250.541L211.43 330.951L211.43 299.534L211.43 299.534V330.952L263.468 300.697L263.539 284.21L274.629 290.612V259.194L274.629 259.194L274.629 290.612L326.667 260.357L326.732 245.212L337.828 251.617V220.199L337.828 220.199L337.828 251.617L389.866 221.362L390.001 189.944L250.694 109.534L241.012 115.163V100.255Z"
        fill="#74AFF8"
      />
    </g>
    <path
      d="M241.012 100.255L188.84 130.644L136.398 100.255L188.571 70L241.012 100.255Z"
      fill="#fff"
    />
    <path
      d="M241.012 100.254V131.806L188.839 162.061V130.643L241.012 100.254Z"
      fill="#5ECAE7"
    />
    <path
      d="M188.839 130.643V162.061L136.397 131.806V100.254L188.839 130.643Z"
      fill="#74AFF8"
    />
    <path
      d="M390 189.944L337.828 220.198L198.656 139.788L250.694 109.533L390 189.944Z"
      fill="#fff"
    />
    <path
      d="M390 189.944L389.866 221.362L337.828 251.617V220.199L390 189.944Z"
      fill="#5ECAE7"
    />
    <path
      d="M337.827 220.199V251.616L198.521 171.206L198.655 139.788L337.827 220.199Z"
      fill="#74AFF8"
    />
    <path
      d="M177.814 139.25L125.641 169.639L73.1997 139.25L125.372 108.995L177.814 139.25Z"
      fill="#fff"
    />
    <path
      d="M177.813 139.25V170.802L125.641 201.057V169.639L177.813 139.25Z"
      fill="#5ECAE7"
    />
    <path
      d="M125.641 169.639V201.057L73.1992 170.802V139.25L125.641 169.639Z"
      fill="#74AFF8"
    />
    <path
      d="M326.802 228.939L274.629 259.194L135.457 178.783L187.495 148.528L326.802 228.939Z"
      fill="#fff"
    />
    <path
      d="M326.802 228.938L326.667 260.356L274.629 290.611V259.193L326.802 228.938Z"
      fill="#5ECAE7"
    />
    <path
      d="M274.629 259.193V290.611L135.322 210.2L135.457 178.782L274.629 259.193Z"
      fill="#74AFF8"
    />
    <path
      d="M114.614 179.59L62.4416 209.979L10 179.59L62.1727 149.335L114.614 179.59Z"
      fill="#fff"
    />
    <path
      d="M114.614 179.59V211.142L62.4414 241.397V209.979L114.614 179.59Z"
      fill="#5ECAE7"
    />
    <path
      d="M62.4416 209.979V241.397L10 211.142V179.59L62.4416 209.979Z"
      fill="#74AFF8"
    />
    <path
      d="M263.603 269.279L211.43 299.533L72.2583 219.123L124.297 188.868L263.603 269.279Z"
      fill="#fff"
    />
    <path
      d="M263.603 269.278L263.468 300.696L211.43 330.951V299.533L263.603 269.278Z"
      fill="#5ECAE7"
    />
    <path
      d="M211.43 299.533V330.95L72.1235 250.54L72.258 219.122L211.43 299.533Z"
      fill="#74AFF8"
    />
    <defs>
      <filter
        id="filter0_d"
        x="2"
        y="62"
        width="396.001"
        height="276.952"
        filterUnits="userSpaceOnUse"
        color-interpolation-filters="sRGB"
      >
        <feFlood
          flood-opacity="0"
          result="BackgroundImageFix"
        />
        <feColorMatrix
          in="SourceAlpha"
          type="matrix"
          values="0 0 0 0 0 0 0 0 0 0 0 0 0 0 0 0 0 0 127 0"
        />
        <feOffset />
        <feGaussianBlur stdDeviation="4" />
        <feColorMatrix
          type="matrix"
          values="0 0 0 0 0 0 0 0 0 0 0 0 0 0 0 0 0 0 0.08 0"
        />
        <feBlend
          mode="normal"
          in2="BackgroundImageFix"
          result="effect1_dropShadow"
        />
        <feBlend
          mode="normal"
          in="SourceGraphic"
          in2="effect1_dropShadow"
          result="shape"
        />
      </filter>
    </defs>
  </svg>
