<svg width="196" height="131" viewBox="0 0 196 131" fill="none" xmlns="http://www.w3.org/2000/svg">
<path d="M176.263 85.4719C176.263 97.5152 172.349 111.881 153.71 111.881C138.749 111.881 131.158 102.992 131.158 85.4719L131 65.5C131 29.3843 101.616 0 65.5 0C29.3843 0 0 29.3843 0 65.5C0 101.616 29.3843 131 65.5 131C80.081 131 93.5653 126.204 104.462 118.118L90.7337 104.39C83.4647 109.114 74.8121 111.888 65.5 111.888C39.8864 111.888 19.1188 91.1208 19.1188 65.5072C19.1188 39.8936 39.8864 19.126 65.5 19.126C91.1136 19.126 111.881 39.8936 111.881 65.5072C111.881 66.2097 111.946 66.9122 112.039 67.6076V85.479C112.039 113.559 128.004 131 153.703 131C179.403 131 195.367 113.559 195.367 85.479V39.1767H176.249V85.4719H176.263Z" fill="url(#paint0_linear)"/>
<path d="M195.374 0.831543H176.263V19.9432H195.374V0.831543Z" fill="#C4508D"/>
<defs>
<linearGradient id="paint0_linear" x1="14.352" y1="23.1193" x2="183.895" y2="121.005" gradientUnits="userSpaceOnUse">
<stop stop-color="#4162F0"/>
<stop offset="1" stop-color="#DE4B7A"/>
</linearGradient>
</defs>
</svg>
